<svg width="18" height="21" viewBox="0 0 18 21" fill="none" xmlns="http://www.w3.org/2000/svg">
<path d="M9.00146 20.5C10.3066 20.5 11.3745 19.5769 11.3745 18.4487H6.62843C6.62843 18.9928 6.87845 19.5145 7.32348 19.8992C7.76851 20.2839 8.3721 20.5 9.00146 20.5ZM16.1205 14.3462V9.21795C16.1205 6.06923 14.1747 3.43333 10.7812 2.7359V2.03846C10.7812 1.18718 9.98627 0.5 9.00146 0.5C8.01666 0.5 7.22169 1.18718 7.22169 2.03846V2.7359C3.8164 3.43333 1.88238 6.05897 1.88238 9.21795V14.3462L0.351774 15.6692C-0.395729 16.3154 0.126337 17.4231 1.18233 17.4231H16.8087C17.8647 17.4231 18.3987 16.3154 17.6512 15.6692L16.1205 14.3462Z" fill="#B2B2B2"/>
</svg>
