<svg width="24" height="24" viewBox="0 0 24 24" fill="none" xmlns="http://www.w3.org/2000/svg">
<path fill-rule="evenodd" clip-rule="evenodd" d="M17.8335 17.3065C17.8335 18.2436 17.0655 19 16.1139 19H7.5531C6.6015 19 5.8335 18.2436 5.8335 17.3065V8.87536C5.8335 7.93818 6.6015 7.18182 7.5531 7.18182H9.4335V6.59682C9.43446 6.45778 9.48422 6.32334 9.57432 6.21629C9.66443 6.10924 9.78934 6.03617 9.9279 6.00945L10.0335 6C10.3647 6 10.6335 6.25291 10.6335 6.59682V7.18182H13.0335V6.59682C13.0345 6.45778 13.0842 6.32334 13.1743 6.21629C13.2644 6.10924 13.3893 6.03617 13.5279 6.00945L13.6335 6C13.9647 6 14.2335 6.25291 14.2335 6.59682V7.18182H16.1139C17.0655 7.18182 17.8335 7.93818 17.8335 8.87536V17.3065ZM7.0335 10.7273V17.0264C7.0335 17.4636 7.3935 17.8182 7.8375 17.8182H15.8295C16.2735 17.8182 16.6335 17.4636 16.6335 17.0264V10.7273H7.0335ZM8.8335 15.4545C9.1275 15.4545 9.3735 15.6708 9.4239 15.9415L9.4335 16.0455C9.4335 16.335 9.2139 16.5773 8.9391 16.6269L8.8335 16.6364C8.67485 16.6348 8.52315 16.5721 8.41096 16.4616C8.29878 16.3511 8.23506 16.2017 8.2335 16.0455C8.2335 15.7559 8.4531 15.5136 8.7279 15.464L8.8335 15.4545ZM11.8335 15.4545C12.1275 15.4545 12.3735 15.6708 12.4239 15.9415L12.4335 16.0455C12.4335 16.335 12.2139 16.5773 11.9391 16.6269L11.8335 16.6364C11.6749 16.6348 11.5231 16.5721 11.411 16.4616C11.2988 16.3511 11.2351 16.2017 11.2335 16.0455C11.2335 15.7559 11.4531 15.5136 11.7279 15.464L11.8335 15.4545ZM14.8335 15.4545C15.1275 15.4545 15.3735 15.6708 15.4239 15.9415L15.4335 16.0455C15.4335 16.335 15.2139 16.5773 14.9391 16.6269L14.8335 16.6364C14.6749 16.6348 14.5231 16.5721 14.411 16.4616C14.2988 16.3511 14.2351 16.2017 14.2335 16.0455C14.2335 15.7559 14.4531 15.5136 14.7279 15.464L14.8335 15.4545ZM8.8335 13.6818C9.1275 13.6818 9.3735 13.8981 9.4239 14.1687L9.4335 14.2727C9.4335 14.5623 9.2139 14.8045 8.9391 14.8542L8.8335 14.8636C8.67485 14.8621 8.52315 14.7993 8.41096 14.6889C8.29878 14.5784 8.23506 14.429 8.2335 14.2727C8.2335 13.9832 8.4531 13.7409 8.7279 13.6913L8.8335 13.6818ZM11.8335 13.6818C12.1275 13.6818 12.3735 13.8981 12.4239 14.1687L12.4335 14.2727C12.4335 14.5623 12.2139 14.8045 11.9391 14.8542L11.8335 14.8636C11.6749 14.8621 11.5231 14.7993 11.411 14.6889C11.2988 14.5784 11.2351 14.429 11.2335 14.2727C11.2335 13.9832 11.4531 13.7409 11.7279 13.6913L11.8335 13.6818ZM14.8335 13.6818C15.1275 13.6818 15.3735 13.8981 15.4239 14.1687L15.4335 14.2727C15.4335 14.5623 15.2139 14.8045 14.9391 14.8542L14.8335 14.8636C14.6749 14.8621 14.5231 14.7993 14.411 14.6889C14.2988 14.5784 14.2351 14.429 14.2335 14.2727C14.2335 13.9832 14.4531 13.7409 14.7279 13.6913L14.8335 13.6818ZM8.8335 11.9091C9.1275 11.9091 9.3735 12.1254 9.4239 12.396L9.4335 12.5C9.4335 12.7895 9.2139 13.0318 8.9391 13.0815L8.8335 13.0909C8.67485 13.0894 8.52315 13.0266 8.41096 12.9161C8.29878 12.8056 8.23506 12.6562 8.2335 12.5C8.2335 12.2105 8.4531 11.9682 8.7279 11.9185L8.8335 11.9091ZM11.8335 11.9091C12.1275 11.9091 12.3735 12.1254 12.4239 12.396L12.4335 12.5C12.4335 12.7895 12.2139 13.0318 11.9391 13.0815L11.8335 13.0909C11.6749 13.0894 11.5231 13.0266 11.411 12.9161C11.2988 12.8056 11.2351 12.6562 11.2335 12.5C11.2335 12.2105 11.4531 11.9682 11.7279 11.9185L11.8335 11.9091ZM14.8335 11.9091C15.1275 11.9091 15.3735 12.1254 15.4239 12.396L15.4335 12.5C15.4335 12.7895 15.2139 13.0318 14.9391 13.0815L14.8335 13.0909C14.6749 13.0894 14.5231 13.0266 14.411 12.9161C14.2988 12.8056 14.2351 12.6562 14.2335 12.5C14.2335 12.2105 14.4531 11.9682 14.7279 11.9185L14.8335 11.9091ZM7.0335 9.54545H16.6335V9.15545C16.6335 8.71818 16.2735 8.36364 15.8295 8.36364H7.8375C7.3935 8.36364 7.0335 8.71818 7.0335 9.15545V9.54545Z" fill="#626677"/>
</svg>
