<svg width="18" height="21" viewBox="0 0 18 21" fill="none" xmlns="http://www.w3.org/2000/svg">
<path d="M12.316 2.21729C11.474 1.30823 10.298 0.807617 8.99992 0.807617C7.69495 0.807617 6.51503 1.3052 5.67693 2.20864C4.82974 3.12202 4.41697 4.36338 4.51389 5.70383C4.706 8.34837 6.71839 10.4997 8.99992 10.4997C11.2814 10.4997 13.2904 8.3488 13.4855 5.70469C13.5837 4.37636 13.1684 3.1376 12.316 2.21729Z" fill="#B2B2B2"/>
<path d="M16.6152 20.1907H1.38482C1.18547 20.1933 0.988051 20.1514 0.806921 20.0681C0.625791 19.9848 0.46551 19.8622 0.337738 19.7091C0.0564959 19.3729 -0.0568663 18.9139 0.0270736 18.4496C0.392256 16.4238 1.53194 14.7221 3.32323 13.5274C4.91463 12.4669 6.93049 11.8832 9 11.8832C11.0695 11.8832 13.0854 12.4674 14.6768 13.5274C16.4681 14.7216 17.6077 16.4234 17.9729 18.4492C18.0569 18.9134 17.9435 19.3725 17.6623 19.7087C17.5345 19.8618 17.3743 19.9845 17.1931 20.0679C17.012 20.1513 16.8146 20.1932 16.6152 20.1907Z" fill="#B2B2B2"/>
</svg>
